# xmcd
#
# Track frame offsets: 
#        150
#        12588
#        27009
#        41994
#        56932
#        73660
#        87495
#        104825
#        118573
#        127555
#        142358
#        165284
#        177959
#        195424
#        215619
#        229979
#        246707
#        261051
#        282713
#        296951
#
# Disc length: 4188 seconds
#
# Revision: 0
# Processed by: cddbd v1.4PL0 Copyright (c) Steve Scherf et al.
# Submitted via: ExactAudioCopy v0.90b4
#
DISCID=45105a14
DTITLE=Richard Clayderman - Star Series
DYEAR=1900
DGENRE=Instrumental
TTITLE0=Ave Maria
TTITLE1=Hymme a la Joie
TTITLE2=Colin Maillard
TTITLE3=Feelings
TTITLE4=Summertime
TTITLE5=Love story
TTITLE6=Warsaw concerto
TTITLE7=Barcarolle
TTITLE8=Elisabethan serenade
TTITLE9=La mer
TTITLE10=Rhapsody in blue
TTITLE11=Largo
TTITLE12=My way
TTITLE13=You are my world
TTITLE14=Romance
TTITLE15=Eleana
TTITLE16=Theme from "The Bretts"
TTITLE17=Eroica
TTITLE18=La Sorellina
TTITLE19=I dreamed a dream
EXTD=
EXTT0=
EXTT1=
EXTT2=
EXTT3=
EXTT4=
EXTT5=
EXTT6=
EXTT7=
EXTT8=
EXTT9=
EXTT10=
EXTT11=
EXTT12=
EXTT13=
EXTT14=
EXTT15=
EXTT16=
EXTT17=
EXTT18=
EXTT19=
PLAYORDER=
